<svg width="59" height="52" viewBox="0 0 59 52" fill="none" xmlns="http://www.w3.org/2000/svg">
<path d="M0.96 51L12.192 16.44H19.416L30.648 51H25.44L15.096 19.464H16.392L6.168 51H0.96ZM6.792 43.2V38.496H24.84V43.2H6.792ZM42.2738 51.72C40.3538 51.72 38.7458 51.368 37.4498 50.664C36.1538 49.944 35.1698 49 34.4978 47.832C33.8418 46.648 33.5138 45.352 33.5138 43.944C33.5138 42.632 33.7458 41.48 34.2098 40.488C34.6738 39.496 35.3618 38.656 36.2738 37.968C37.1858 37.264 38.3058 36.696 39.6338 36.264C40.7858 35.928 42.0898 35.632 43.5458 35.376C45.0018 35.12 46.5298 34.88 48.1298 34.656C49.7458 34.432 51.3458 34.208 52.9298 33.984L51.1058 34.992C51.1378 32.96 50.7058 31.456 49.8098 30.48C48.9298 29.488 47.4098 28.992 45.2498 28.992C43.8898 28.992 42.6418 29.312 41.5058 29.952C40.3698 30.576 39.5778 31.616 39.1298 33.072L34.4498 31.632C35.0898 29.408 36.3058 27.64 38.0978 26.328C39.9058 25.016 42.3058 24.36 45.2978 24.36C47.6178 24.36 49.6338 24.76 51.3458 25.56C53.0738 26.344 54.3378 27.592 55.1378 29.304C55.5538 30.152 55.8098 31.048 55.9058 31.992C56.0018 32.936 56.0498 33.952 56.0498 35.04V51H51.6098V45.072L52.4738 45.84C51.4018 47.824 50.0338 49.304 48.3698 50.28C46.7218 51.24 44.6898 51.72 42.2738 51.72ZM43.1618 47.616C44.5858 47.616 45.8098 47.368 46.8338 46.872C47.8578 46.36 48.6818 45.712 49.3058 44.928C49.9298 44.144 50.3378 43.328 50.5298 42.48C50.8018 41.712 50.9538 40.848 50.9858 39.888C51.0338 38.928 51.0578 38.16 51.0578 37.584L52.6898 38.184C51.1058 38.424 49.6658 38.64 48.3698 38.832C47.0738 39.024 45.8978 39.216 44.8418 39.408C43.8018 39.584 42.8738 39.8 42.0578 40.056C41.3698 40.296 40.7538 40.584 40.2098 40.92C39.6818 41.256 39.2578 41.664 38.9378 42.144C38.6338 42.624 38.4818 43.208 38.4818 43.896C38.4818 44.568 38.6498 45.192 38.9858 45.768C39.3218 46.328 39.8338 46.776 40.5218 47.112C41.2098 47.448 42.0898 47.616 43.1618 47.616Z" fill="black"/>
</svg>
